<svg xmlns="http://www.w3.org/2000/svg" id="Background_copy_Image" data-name="Background copy Image" viewBox="0 0 153.28 109.36"><defs><style>.cls-1{fill:#c92337;stroke:#c92337;stroke-miterlimit:10;stroke-width:4px}</style></defs><path d="M55.23 100.13c-25.06 0-45.45-20.39-45.45-45.45S30.16 9.23 55.23 9.23s45.45 20.39 45.45 45.45c0 2.31-1.87 4.18-4.18 4.18s-4.18-1.87-4.18-4.18c0-20.46-16.64-37.1-37.1-37.1s-37.09 16.64-37.09 37.1 16.64 37.1 37.1 37.1c2.31 0 4.18 1.87 4.18 4.18s-1.87 4.18-4.18 4.18Z" class="cls-1"/><path d="M105.25 100.13c-21.1 0-38.26-17.16-38.26-38.26 0-2.31 1.87-4.18 4.18-4.18s4.18 1.87 4.18 4.18c0 16.49 13.42 29.91 29.91 29.91s29.91-13.42 29.91-29.91-13.42-29.91-29.91-29.91c-2.31 0-4.18-1.87-4.18-4.18s1.87-4.18 4.18-4.18c21.1 0 38.26 17.16 38.26 38.26s-17.16 38.26-38.26 38.26Z" class="cls-1"/></svg>